# Blender v2.78 (sub 0) OBJ File: ''
# www.blender.org
mtllib lowpolytree3.mtl
o Cylinder
v -0.018886 0.264436 0.756898
v -0.018886 0.373037 1.351127
v 0.231064 0.282063 1.351127
v 0.161257 0.198870 0.756898
v 0.364060 0.051708 1.351127
v 0.257109 0.032850 0.756898
v 0.317871 -0.210242 1.351127
v 0.223820 -0.155942 0.756898
v 0.114110 -0.381218 1.351127
v 0.076966 -0.279167 0.756898
v -0.151881 -0.381218 1.351127
v -0.114738 -0.279166 0.756898
v -0.355642 -0.210242 1.351127
v -0.261591 -0.155942 0.756898
v -0.401831 0.051708 1.351127
v -0.294880 0.032850 0.756898
v -0.268836 0.282063 1.351127
v -0.199028 0.198870 0.756898
v -0.018886 0.373038 0.175681
v 0.231064 0.282064 0.175681
v 0.364060 0.051709 0.175681
v 0.317871 -0.210241 0.175681
v 0.114110 -0.381217 0.175681
v -0.151881 -0.381217 0.175681
v -0.355642 -0.210241 0.175681
v -0.401831 0.051709 0.175681
v -0.268836 0.282064 0.175681
v 0.015674 0.253985 4.537655
v 0.019167 -0.022685 5.298322
v 0.028745 -0.026171 5.298322
v 0.199847 0.186951 4.537656
v 0.033842 -0.034998 5.298322
v 0.292234 0.023412 4.474329
v 0.032072 -0.045036 5.298322
v 0.263809 -0.175799 4.537655
v 0.024263 -0.051588 5.298322
v 0.113670 -0.301781 4.537655
v 0.014070 -0.051588 5.298322
v -0.087932 -0.295585 4.474329
v 0.006262 -0.045036 5.298322
v -0.232462 -0.175799 4.537655
v 0.004492 -0.034998 5.298322
v -0.266496 0.017216 4.537655
v 0.009589 -0.026171 5.298322
v -0.174109 0.193147 4.474329
v -0.005440 0.939428 1.261845
v 0.637348 0.705472 1.261845
v 0.979368 0.113076 1.067768
v 0.860586 -0.560572 1.067768
v 0.336580 -1.000265 1.261845
v -0.353069 -0.994068 1.198519
v -0.871465 -0.560572 1.067768
v -0.990247 0.113076 1.067768
v -0.653837 0.711668 1.004441
v -1.162461 0.150182 1.016435
v -0.862932 0.094124 1.617901
v -0.569643 0.618026 1.554575
v -0.766733 0.851516 0.953109
v -0.002290 0.816288 1.617901
v -0.006855 1.119851 1.016435
v -1.023078 -0.640299 1.016435
v -0.759126 -0.494589 1.617901
v -0.413802 -1.150053 0.953109
v -0.306797 -0.872648 1.554574
v 0.394483 -1.156250 1.016435
v 0.296607 -0.878845 1.617901
v 1.009368 -0.640300 1.016435
v 0.754545 -0.494589 1.617901
v 1.143143 0.156378 0.953109
v 0.858351 0.094124 1.617901
v 0.747414 0.845319 1.016435
v 0.559453 0.611830 1.617901
v -0.470645 0.047717 3.764150
v -0.162981 -0.010069 4.587746
v -0.106769 0.103203 4.524419
v -0.309076 0.343474 3.700823
v 0.015024 0.139295 4.587746
v 0.010725 0.451634 3.764150
v -0.412585 -0.281559 3.764150
v -0.141511 -0.131831 4.587746
v -0.162062 -0.490283 3.700824
v -0.052405 -0.205110 4.524419
v 0.177903 -0.496479 3.764150
v 0.076845 -0.211306 4.587746
v 0.434034 -0.281559 3.764150
v 0.171559 -0.131831 4.587746
v 0.486486 0.053914 3.700823
v 0.193029 -0.010069 4.587746
v 0.324917 0.337278 3.764150
v 0.131209 0.097007 4.587746
v 0.005286 0.671042 2.913987
v 0.010529 0.315060 3.816697
v 0.242392 0.230668 3.816697
v 0.463775 0.504165 2.913987
v 0.365764 0.016982 3.816697
v 0.702124 0.087815 2.850660
v 0.322917 -0.226013 3.816697
v 0.623007 -0.398883 2.913987
v 0.133901 -0.384617 3.816697
v 0.249243 -0.712509 2.913987
v -0.118452 -0.378421 3.753371
v -0.244281 -0.706312 2.850661
v -0.301860 -0.226013 3.816697
v -0.612436 -0.398883 2.913987
v -0.344706 0.016982 3.816697
v -0.697161 0.081619 2.913987
v -0.458813 0.510362 2.850661
v -0.226943 0.236865 3.753370
v -0.864248 0.105654 2.150132
v -0.545192 0.046827 2.966049
v -0.359524 0.384325 2.902722
v -0.569569 0.631965 2.086806
v 0.005569 0.508971 2.966049
v 0.000399 0.831178 2.150132
v -0.759959 -0.485799 2.150133
v -0.478762 -0.329916 2.966049
v -0.305499 -0.865646 2.086806
v -0.191317 -0.569622 2.902722
v 0.300687 -0.871843 2.150133
v 0.196847 -0.575818 2.966049
v 0.760756 -0.485799 2.150132
v 0.489901 -0.329917 2.966049
v 0.859436 0.111850 2.086806
v 0.556331 0.046827 2.966049
v 0.564756 0.625769 2.150133
v 0.365054 0.378129 2.966049
v -0.003388 0.997131 1.558347
v 0.001149 0.681816 2.207806
v 0.474390 0.509570 2.207807
v 0.669916 0.752068 1.558348
v 0.726197 0.073428 2.207806
v 1.022565 0.137744 1.495021
v 0.638746 -0.422534 2.207807
v 0.903752 -0.574081 1.558348
v 0.252955 -0.746250 2.207807
v 0.354870 -1.034648 1.558348
v -0.256267 -0.740054 2.144480
v -0.367254 -1.028452 1.495021
v -0.636448 -0.422534 2.207807
v -0.910528 -0.574081 1.558348
v -0.723899 0.073428 2.207806
v -1.034949 0.131548 1.558347
v -0.682301 0.758265 1.495021
v -0.477702 0.515766 2.144480
vn 0.3371 0.9261 -0.1693
vn 0.8535 0.4928 -0.1693
vn 0.9706 -0.1711 -0.1693
vn 0.6335 -0.7550 -0.1693
vn -0.0000 -0.9856 -0.1693
vn -0.6335 -0.7550 -0.1693
vn -0.9706 -0.1711 -0.1693
vn 0.0000 0.0000 1.0000
vn -0.3371 0.9261 -0.1693
vn -0.8535 0.4928 -0.1693
vn 0.0000 0.0000 -1.0000
vn -0.8530 0.4925 0.1729
vn -0.3369 0.9255 0.1729
vn -0.9700 -0.1710 0.1729
vn -0.6331 -0.7545 0.1729
vn -0.0000 -0.9849 0.1729
vn 0.6331 -0.7545 0.1729
vn 0.9700 -0.1710 0.1729
vn 0.8530 0.4925 0.1729
vn 0.3369 0.9255 0.1729
vn 0.3238 0.8896 0.3221
vn 0.8730 0.3827 0.3022
vn 0.9536 -0.0477 0.2971
vn 0.6109 -0.7280 0.3112
vn -0.1164 -0.9479 0.2965
vn -0.5313 -0.7917 0.3015
vn -0.9327 -0.1645 0.3210
vn -0.3809 0.8686 0.3169
vn -0.7898 0.5253 0.3166
vn 0.0415 -0.0024 -0.9991
vn -0.7667 0.4757 0.4310
vn -0.3356 0.8379 0.4304
vn -0.8898 -0.1569 0.4285
vn -0.5511 -0.7193 0.4230
vn -0.0455 -0.9070 0.4187
vn 0.5844 -0.6965 0.4163
vn 0.9079 -0.1376 0.3960
vn 0.8023 0.4408 0.4025
vn 0.3093 0.8499 0.4266
vn -0.7838 0.5217 0.3370
vn -0.3783 0.8623 0.3367
vn -0.9279 -0.1636 0.3351
vn -0.5277 -0.7832 0.3288
vn -0.1127 -0.9388 0.3256
vn 0.6078 -0.7244 0.3254
vn 0.9437 -0.1093 0.3122
vn 0.8444 0.4317 0.3173
vn 0.3224 0.8857 0.3342
vn 0.3209 0.8817 0.3458
vn 0.8325 0.4447 0.3304
vn 0.9366 -0.1283 0.3260
vn 0.6047 -0.7207 0.3390
vn -0.0735 -0.9372 0.3409
vn -0.5534 -0.7585 0.3441
vn -0.9230 -0.1627 0.3487
vn -0.3579 0.8661 0.3490
vn -0.7906 0.5024 0.3500
vn -0.7957 0.4939 0.3507
vn -0.3486 0.8696 0.3496
vn -0.9228 -0.1627 0.3491
vn -0.5664 -0.7487 0.3446
vn -0.0551 -0.9385 0.3408
vn 0.6048 -0.7208 0.3385
vn 0.9359 -0.1375 0.3243
vn 0.8290 0.4520 0.3293
vn 0.3209 0.8816 0.3461
vn 0.3114 0.8557 0.4133
vn 0.8077 0.4412 0.3910
vn 0.9129 -0.1357 0.3849
vn 0.5881 -0.7009 0.4035
vn -0.0509 -0.9126 0.4056
vn -0.5513 -0.7268 0.4096
vn -0.8960 -0.1580 0.4150
vn -0.3404 0.8429 0.4168
vn -0.7708 0.4812 0.4174
vn 0.1824 -0.4715 -0.8628
vn 0.4346 -0.2778 -0.8567
vn 0.4511 0.0795 -0.8889
vn 0.0338 0.5765 -0.8164
vn 0.3326 0.4586 -0.8240
vn -0.3049 0.3633 -0.8804
vn -0.6502 -0.0485 -0.7582
vn -0.6189 -0.1734 -0.7661
vn -0.1439 -0.3954 -0.9072
vn -0.1295 -0.3559 -0.9255
vn -0.5359 -0.2028 -0.8196
vn -0.5873 0.0082 -0.8093
vn -0.2691 0.3207 -0.9081
vn 0.1984 0.4170 -0.8870
vn 0.1156 0.4495 -0.8858
vn 0.3987 0.0703 -0.9144
vn 0.3033 -0.2901 -0.9077
vn 0.2296 -0.3477 -0.9091
vn 0.2137 -0.2733 -0.9379
vn 0.2322 -0.2586 -0.9377
vn 0.3356 0.0592 -0.9401
vn 0.1208 0.3590 -0.9255
vn 0.1379 0.3523 -0.9257
vn -0.2263 0.2697 -0.9360
vn -0.5129 0.0235 -0.8581
vn -0.4618 -0.1920 -0.8659
vn -0.1107 -0.3041 -0.9462
vn -0.1302 -0.3577 -0.9247
vn -0.5031 -0.2339 -0.8320
vn -0.5695 0.0494 -0.8205
vn -0.2660 0.3170 -0.9104
vn 0.1072 0.4144 -0.9038
vn 0.1839 0.3844 -0.9047
vn 0.3927 0.0692 -0.9170
vn 0.2232 -0.3218 -0.9201
vn 0.2799 -0.2765 -0.9193
vn 0.2434 -0.2401 -0.9398
vn 0.1938 -0.2801 -0.9402
vn 0.3381 0.0596 -0.9392
vn 0.1572 0.3297 -0.9309
vn 0.0922 0.3550 -0.9303
vn -0.2282 0.2720 -0.9348
vn -0.4989 0.0432 -0.8656
vn -0.4422 -0.2057 -0.8730
vn -0.1133 -0.3114 -0.9435
vn -0.2817 -0.7738 -0.5673
vn -0.6966 -0.2673 -0.6658
vn -0.4648 0.0418 -0.8844
vn -0.5116 0.4627 -0.7239
vn 0.0523 0.8427 -0.5359
vn 0.4635 0.5019 -0.7303
vn 0.2956 0.0521 -0.9539
vn 0.3663 -0.5587 -0.7441
vn 0.2118 -0.2122 -0.9540
usemtl Bark
s 1
f 1//1 2//1 3//1 4//1
f 4//2 3//2 5//2 6//2
f 6//3 5//3 7//3 8//3
f 8//4 7//4 9//4 10//4
f 10//5 9//5 11//5 12//5
f 12//6 11//6 13//6 14//6
f 14//7 13//7 15//7 16//7
f 3//8 2//8 17//8 15//8 13//8 11//8 9//8 7//8 5//8
f 18//9 17//9 2//9 1//9
f 16//10 15//10 17//10 18//10
f 19//11 20//11 21//11 22//11 23//11 24//11 25//11 26//11 27//11
f 26//12 16//12 18//12 27//12
f 27//13 18//13 1//13 19//13
f 25//14 14//14 16//14 26//14
f 24//15 12//15 14//15 25//15
f 23//16 10//16 12//16 24//16
f 22//17 8//17 10//17 23//17
f 21//18 6//18 8//18 22//18
f 20//19 4//19 6//19 21//19
f 19//20 1//20 4//20 20//20
usemtl Leaves
f 28//21 29//21 30//21 31//21
f 31//22 30//22 32//22 33//22
f 33//23 32//23 34//23 35//23
f 35//24 34//24 36//24 37//24
f 37//25 36//25 38//25 39//25
f 39//26 38//26 40//26 41//26
f 41//27 40//27 42//27 43//27
f 30//8 29//8 44//8 42//8 40//8 38//8 36//8 34//8 32//8
f 45//28 44//28 29//28 28//28
f 43//29 42//29 44//29 45//29
f 46//30 47//30 48//30 49//30 50//30 51//30 52//30 53//30 54//30
f 55//31 56//31 57//31 58//31
f 58//32 57//32 59//32 60//32
f 61//33 62//33 56//33 55//33
f 63//34 64//34 62//34 61//34
f 65//35 66//35 64//35 63//35
f 67//36 68//36 66//36 65//36
f 69//37 70//37 68//37 67//37
f 71//38 72//38 70//38 69//38
f 60//39 59//39 72//39 71//39
f 73//40 74//40 75//40 76//40
f 76//41 75//41 77//41 78//41
f 79//42 80//42 74//42 73//42
f 81//43 82//43 80//43 79//43
f 83//44 84//44 82//44 81//44
f 85//45 86//45 84//45 83//45
f 87//46 88//46 86//46 85//46
f 89//47 90//47 88//47 87//47
f 78//48 77//48 90//48 89//48
f 91//49 92//49 93//49 94//49
f 94//50 93//50 95//50 96//50
f 96//51 95//51 97//51 98//51
f 98//52 97//52 99//52 100//52
f 100//53 99//53 101//53 102//53
f 102//54 101//54 103//54 104//54
f 104//55 103//55 105//55 106//55
f 107//56 108//56 92//56 91//56
f 106//57 105//57 108//57 107//57
f 109//58 110//58 111//58 112//58
f 112//59 111//59 113//59 114//59
f 115//60 116//60 110//60 109//60
f 117//61 118//61 116//61 115//61
f 119//62 120//62 118//62 117//62
f 121//63 122//63 120//63 119//63
f 123//64 124//64 122//64 121//64
f 125//65 126//65 124//65 123//65
f 114//66 113//66 126//66 125//66
f 127//67 128//67 129//67 130//67
f 130//68 129//68 131//68 132//68
f 132//69 131//69 133//69 134//69
f 134//70 133//70 135//70 136//70
f 136//71 135//71 137//71 138//71
f 138//72 137//72 139//72 140//72
f 140//73 139//73 141//73 142//73
f 143//74 144//74 128//74 127//74
f 142//75 141//75 144//75 143//75
f 74//76 43//76 45//76 75//76
f 75//77 45//77 28//77 77//77
f 80//78 41//78 43//78 74//78
f 82//79 39//79 41//79 80//79
f 84//80 37//80 39//80 82//80
f 86//81 35//81 37//81 84//81
f 88//82 33//82 35//82 86//82
f 90//83 31//83 33//83 88//83
f 77//84 28//84 31//84 90//84
f 92//85 78//85 89//85 93//85
f 93//86 89//86 87//86 95//86
f 95//87 87//87 85//87 97//87
f 97//88 85//88 83//88 99//88
f 99//89 83//89 81//89 101//89
f 101//90 81//90 79//90 103//90
f 103//91 79//91 73//91 105//91
f 108//92 76//92 78//92 92//92
f 105//93 73//93 76//93 108//93
f 110//94 106//94 107//94 111//94
f 111//95 107//95 91//95 113//95
f 116//96 104//96 106//96 110//96
f 118//97 102//97 104//97 116//97
f 120//98 100//98 102//98 118//98
f 122//99 98//99 100//99 120//99
f 124//100 96//100 98//100 122//100
f 126//101 94//101 96//101 124//101
f 113//102 91//102 94//102 126//102
f 128//103 114//103 125//103 129//103
f 129//104 125//104 123//104 131//104
f 131//105 123//105 121//105 133//105
f 133//106 121//106 119//106 135//106
f 135//107 119//107 117//107 137//107
f 137//108 117//108 115//108 139//108
f 139//109 115//109 109//109 141//109
f 144//110 112//110 114//110 128//110
f 141//111 109//111 112//111 144//111
f 56//112 142//112 143//112 57//112
f 57//113 143//113 127//113 59//113
f 62//114 140//114 142//114 56//114
f 64//115 138//115 140//115 62//115
f 66//116 136//116 138//116 64//116
f 68//117 134//117 136//117 66//117
f 70//118 132//118 134//118 68//118
f 72//119 130//119 132//119 70//119
f 59//120 127//120 130//120 72//120
f 46//121 60//121 71//121 47//121
f 47//122 71//122 69//122 48//122
f 48//123 69//123 67//123 49//123
f 49//124 67//124 65//124 50//124
f 50//125 65//125 63//125 51//125
f 51//126 63//126 61//126 52//126
f 52//127 61//127 55//127 53//127
f 54//128 58//128 60//128 46//128
f 53//129 55//129 58//129 54//129
