# Blender v2.78 (sub 0) OBJ File: ''
# www.blender.org
mtllib lowpolytree4.mtl
o Cylinder002
v 0.122714 0.237369 0.166746
v -0.135938 0.248331 0.183690
v -0.195582 0.156291 1.066892
v 0.045825 0.124881 0.977206
v -0.225160 0.005757 0.206215
v -0.256904 -0.053201 1.207116
v -0.021651 -0.155122 0.203193
v -0.053394 -0.214081 1.204093
v 0.193349 -0.011980 0.178799
v 0.133706 -0.104020 1.062001
v 0.207966 0.299312 2.609640
v 0.152420 0.242502 2.562759
v 0.074774 0.140906 2.486730
v 0.082330 0.134933 2.486617
v 0.164650 0.232834 2.562578
v 0.070051 0.281383 1.496410
v 0.163716 0.265771 1.415757
v 0.050429 0.202347 1.624946
v 0.131969 0.137887 1.623735
v 0.201985 0.177085 1.494451
v 0.252286 0.505491 1.837909
v 0.374566 0.524279 1.852634
v 0.186370 0.370793 1.812121
v 0.267910 0.306333 1.810910
v 0.384221 0.401193 1.835950
v 0.197284 0.458349 2.232232
v 0.327198 0.456374 2.278008
v 0.148043 0.334298 2.155780
v 0.247526 0.255654 2.154303
v 0.358251 0.331100 2.229841
vt 0.5000 1.0000
vt 0.0245 0.6545
vt 0.0245 0.6545
vt 0.5000 1.0000
vt 0.2061 0.0955
vt 0.2061 0.0955
vt 0.7939 0.0955
vt 0.7939 0.0955
vt 0.9755 0.6545
vt 0.9755 0.6545
vt 0.0245 0.6545
vt 0.5000 1.0000
vt 0.2061 0.0955
vt 0.7939 0.0955
vt 0.9755 0.6545
vt 0.0245 0.6545
vt 0.5000 1.0000
vt 0.2061 0.0955
vt 0.7939 0.0955
vt 0.9755 0.6545
vt 0.7500 0.0000
vt 0.9500 0.0000
vt 0.9500 1.0000
vt 0.7500 1.0000
vt 1.1500 0.0000
vt 1.1500 1.0000
vt 0.1500 0.0000
vt 0.3500 0.0000
vt 0.3500 1.0000
vt 0.1500 1.0000
vt 0.5500 0.0000
vt 0.5500 1.0000
vt 0.9755 0.6545
vt 0.7939 0.0955
vt 0.2061 0.0955
vt 0.0245 0.6545
vt 0.5000 1.0000
vt 0.0245 0.6545
vt 0.5000 1.0000
vt 0.2061 0.0955
vt 0.7939 0.0955
vt 0.9755 0.6545
vn -0.0121 0.9575 -0.2881
vn -0.8000 0.5135 0.3103
vn -0.4470 -0.5783 0.6825
vn 0.6898 -0.6642 0.2882
vn 0.9291 0.2135 -0.3020
vn -0.1543 0.8727 -0.4632
vn -0.8742 0.4442 0.1963
vn -0.3987 -0.5186 0.7563
vn 0.6374 -0.7507 0.1738
vn 0.8761 0.0582 -0.4785
vn -0.0962 0.9873 0.1266
vn -0.9017 0.4273 -0.0656
vn -0.6144 -0.7744 -0.1508
vn 0.6224 -0.7777 -0.0883
vn 0.9850 0.1326 0.1105
vn 0.6221 0.7688 0.1478
vn -0.4888 0.8699 0.0663
vn -0.7582 0.6514 0.0297
vn 0.6285 0.7637 0.1472
vn -0.9703 -0.2378 -0.0447
vn -0.8864 -0.4586 -0.0626
vn -0.0151 -0.9975 -0.0693
vn -0.2453 -0.9673 -0.0648
vn 0.9640 -0.2593 0.0585
vn 0.8231 -0.5677 0.0128
vn -0.0681 -0.0674 -0.9954
vn -0.4259 0.8294 0.3616
vn -0.8958 0.4314 0.1069
vn -0.5378 -0.6706 -0.5109
vn 0.6283 -0.7734 0.0843
vn 0.9117 -0.2280 0.3417
vn -0.3090 -0.4071 0.8595
usemtl wire_224086086
s off
f 4/1/1 3/2/1 16/3/1 17/4/1
f 3/2/2 6/5/2 18/6/2 16/3/2
f 6/5/3 8/7/3 19/8/3 18/6/3
f 8/7/4 10/9/4 20/10/4 19/8/4
f 10/9/5 4/1/5 17/4/5 20/10/5
f 17/4/6 16/3/6 21/11/6 22/12/6
f 16/3/7 18/6/7 23/13/7 21/11/7
f 18/6/8 19/8/8 24/14/8 23/13/8
f 19/8/9 20/10/9 25/15/9 24/14/9
f 20/10/10 17/4/10 22/12/10 25/15/10
f 22/12/11 21/11/11 26/16/11 27/17/11
f 21/11/12 23/13/12 28/18/12 26/16/12
f 23/13/13 24/14/13 29/19/13 28/18/13
f 24/14/14 25/15/14 30/20/14 29/19/14
f 25/15/15 22/12/15 27/17/15 30/20/15
s 1
f 1/21/16 2/22/17 3/23/18 4/24/19
f 2/22/17 5/25/20 6/26/21 3/23/18
f 5/27/20 7/28/22 8/29/23 6/30/21
f 7/28/22 9/31/24 10/32/25 8/29/23
f 9/31/24 1/21/16 4/24/19 10/32/25
f 9/33/26 7/34/26 5/35/26 2/36/26 1/37/26
usemtl Material__49
s off
f 27/17/27 26/16/27 12/38/27 11/39/27
f 26/16/28 28/18/28 13/40/28 12/38/28
f 28/18/29 29/19/29 14/41/29 13/40/29
f 29/19/30 30/20/30 15/42/30 14/41/30
f 30/20/31 27/17/31 11/39/31 15/42/31
s 1
f 11/39/32 12/38/32 13/40/32 14/41/32 15/42/32
o Hedra001
v 0.506582 -0.155551 4.319282
v 0.966157 0.098085 4.013424
v 0.884121 0.512962 3.936793
v 0.451993 0.763493 4.007974
v 0.208815 0.547845 4.069510
v 0.153630 0.008544 4.306708
v 0.349996 1.234865 3.735826
v 0.134452 1.328924 3.428789
v -0.098712 1.193047 3.388078
v -0.132508 0.860680 3.738709
v -0.341899 1.153940 2.927053
v -0.637089 0.917714 3.051769
v -0.717445 0.588202 3.592574
v -0.494299 0.527732 3.863695
v -0.846568 -0.020479 3.589991
v -0.700791 -0.379107 3.729911
v -0.473830 -0.293226 4.185427
v -0.368972 0.001245 4.256313
v -0.040023 -0.542093 4.138850
v 0.395993 -0.440962 4.311747
v -0.017090 -0.802446 3.528168
v 0.283507 -0.868765 3.497789
v 0.685363 -0.720810 3.885382
v 0.839969 -0.490071 4.119035
v 0.751481 -0.904846 3.453291
v 1.045574 -0.669708 3.312517
v 1.291584 -0.128354 3.497914
v 1.191507 -0.167275 3.844071
v 1.266224 0.482320 3.361379
v 1.042367 0.820112 3.660895
v 0.669109 1.214749 3.578084
v 0.698200 1.178215 3.198344
v 0.313819 1.113672 2.868835
v 0.102565 1.220103 2.940895
v 1.249572 0.392819 2.871132
v 1.075258 0.786488 2.783256
v 0.470703 -0.880207 3.105974
v 0.541237 -0.516650 2.721164
v 0.995442 -0.275019 2.444676
v 1.159044 -0.352669 2.717286
v 0.918122 0.283768 2.086596
v 0.963099 0.598246 2.243070
v 0.438087 0.731010 2.328575
v 0.047461 0.589854 2.160159
v -0.313220 0.772401 2.336949
v -0.152711 1.068313 2.595334
v 0.281628 0.225065 2.083916
v -0.081266 0.376556 2.072872
v 0.292756 -0.978737 3.007160
v 0.121240 -0.919424 2.648960
v -0.071164 -0.369753 2.446761
v 0.207212 -0.144015 2.387009
v -0.597856 -0.238657 2.507664
v -0.671072 0.154517 2.349052
v -0.777683 0.520618 2.463460
v -0.853565 0.528383 2.801050
v -0.631527 -0.583652 2.861358
v -0.852555 -0.149775 3.101708
v -0.306821 -0.897695 3.178353
v -0.204078 -0.992453 2.797520
vt 0.0000 -0.0854
vt 0.1809 -0.1972
vt 0.3191 -0.1118
vt 0.3191 0.1118
vt 0.1809 0.1972
vt 0.0000 0.0854
vt 0.1118 0.3781
vt 0.1771 0.1741
vt 0.3191 0.1118
vt 0.4309 0.1809
vt 0.3973 0.3657
vt 0.2060 0.4870
vt 0.1809 0.1972
vt -0.0000 0.0854
vt -0.0000 -0.0854
vt 0.1809 -0.1972
vt 0.3191 -0.1118
vt 0.3191 0.1118
vt 0.4309 0.1809
vt 0.3191 0.1118
vt 0.1809 0.1972
vt 0.1118 0.3781
vt 0.1972 0.4309
vt 0.3781 0.3191
vt -0.3191 0.1118
vt -0.3191 -0.1118
vt -0.1809 -0.1972
vt -0.1809 0.1972
vt -0.1118 0.3781
vt -0.1941 0.1721
vt -0.3191 0.1118
vt -0.4309 0.1809
vt -0.4536 0.2547
vt -0.2583 0.3720
vt 0.1809 -0.1972
vt 0.0000 -0.0854
vt 0.0000 0.0854
vt 0.1809 0.1972
vt 0.3191 0.1118
vt 0.3191 -0.1118
vt -0.4309 0.1809
vt -0.3191 0.1118
vt -0.1809 0.1972
vt -0.1118 0.3781
vt -0.1972 0.4309
vt -0.3781 0.3191
vt 0.1809 0.1972
vt -0.0000 0.0854
vt -0.0000 -0.0854
vt 0.1809 -0.1972
vt 0.3191 -0.1118
vt -0.3191 -0.1118
vt -0.1809 -0.1972
vt -0.1809 -0.1972
vt -0.3191 -0.1118
vt -0.3191 0.1118
vt -0.1809 0.1972
vt 0.1118 -0.3781
vt 0.2179 -0.1576
vt 0.3191 -0.1118
vt 0.4309 -0.1809
vt 0.3411 -0.3067
vt 0.1242 -0.4486
vt 0.1118 -0.3781
vt 0.1972 -0.4309
vt 0.3781 -0.3191
vt 0.4309 -0.1809
vt 0.3191 0.1118
vt 0.1809 -0.1972
vt 0.0000 -0.0854
vt 0.0000 0.0854
vt 0.1809 0.1972
vt -0.1972 -0.4309
vt -0.3052 -0.3423
vt -0.4309 -0.1809
vt -0.3191 -0.1118
vt -0.1891 -0.1835
vt -0.1249 -0.3695
vt -0.3191 0.1118
vt -0.1809 0.1972
vt -0.1809 -0.1972
vt -0.3191 0.1118
vt -0.3191 -0.1118
vt -0.1809 -0.1972
vt -0.1809 0.1972
vt 0.3781 -0.3191
vt 0.2795 -0.3566
vt 0.2089 -0.3107
vt 0.1809 -0.1972
vt 0.3191 -0.1118
vt 0.4249 -0.2130
vt -0.3191 -0.1118
vt -0.1809 0.1972
vt 0.0000 0.0854
vt 0.0000 -0.0854
vt -0.1809 -0.1972
vt 0.1118 0.3781
vt -0.1118 0.3781
vt -0.1118 -0.3781
vt 0.1118 -0.3781
vt -0.1118 0.3781
vt 0.1118 0.3781
vt -0.1118 -0.3781
vt -0.1118 -0.3781
vt -0.1118 0.3781
vt 0.1118 0.3781
vt -0.1118 -0.3781
vt 0.1118 -0.3781
vt -0.1118 -0.3781
vt 0.1118 -0.3781
vt 0.1118 -0.3781
vt -0.1118 -0.3781
vt 0.1118 0.3781
vt -0.1118 0.3781
vn 0.2422 0.3220 0.9153
vn -0.3921 0.5552 0.7335
vn -0.5334 0.7291 0.4288
vn -0.8110 0.1267 0.5712
vn -0.1414 -0.1925 0.9711
vn -0.0343 -0.8746 0.4836
vn 0.7433 -0.5951 0.3056
vn 0.8462 0.2036 0.4924
vn 0.2002 0.9682 -0.1498
vn 0.7981 0.6023 -0.0169
vn 0.3361 -0.8188 -0.4655
vn 0.9170 0.0345 -0.3973
vn 0.1293 0.7570 -0.6405
vn 0.0567 0.4101 -0.9103
vn 0.4662 -0.4672 -0.7513
vn -0.1492 -0.4626 -0.8739
vn -0.6174 0.6854 -0.3860
vn -0.9286 -0.2142 -0.3031
vn -0.0500 -0.9845 0.1682
vn -0.8175 -0.5724 0.0643
vn -0.2049 0.5111 0.8348
vn 0.5300 -0.0194 0.8478
vn 0.4001 0.5139 0.7588
vn 0.9827 -0.1645 -0.0852
vn 0.2610 0.8453 -0.4663
vn -0.0157 -0.6174 -0.7865
vn -0.3976 0.2786 -0.8742
vn -0.3626 -0.4798 -0.7990
vn -0.9736 0.2044 0.1015
vn -0.3983 -0.8238 0.4033
vn 0.0347 -0.9756 0.2169
vn -0.2331 0.9607 -0.1509
usemtl wire_154185229
s off
f 31/43/33 32/44/33 33/45/33 34/46/33 35/47/33 36/48/33
f 34/49/34 37/50/34 38/51/34 39/52/34 40/53/34 35/54/34
f 39/55/35 41/56/35 42/57/35 43/58/35 44/59/35 40/60/35
f 43/61/36 45/62/36 46/63/36 47/64/36 48/65/36 44/66/36
f 47/67/37 49/68/37 50/69/37 31/43/37 36/48/37 48/70/37
f 49/71/38 51/72/38 52/73/38 53/74/38 54/75/38 50/76/38
f 53/77/39 55/78/39 56/79/39 57/80/39 58/81/39 54/82/39
f 57/83/40 59/84/40 60/85/40 33/86/40 32/87/40 58/88/40
f 37/89/41 61/90/41 62/91/41 63/92/41 64/93/41 38/51/41
f 61/90/42 60/85/42 59/84/42 65/94/42 66/95/42 62/91/42
f 55/78/43 67/96/43 68/97/43 69/98/43 70/99/43 56/79/43
f 69/100/44 71/101/44 72/102/44 66/103/44 65/104/44 70/105/44
f 63/92/45 73/106/45 74/107/45 75/108/45 76/109/45 64/93/45
f 73/110/46 72/102/46 71/111/46 77/112/46 78/113/46 74/114/46
f 67/115/47 79/116/47 80/117/47 81/118/47 82/119/47 68/120/47
f 81/118/48 83/121/48 84/122/48 78/113/48 77/112/48 82/123/48
f 75/124/49 85/125/49 86/126/49 42/57/49 41/56/49 76/127/49
f 85/128/50 84/129/50 83/130/50 87/131/50 88/132/50 86/133/50
f 79/134/51 52/73/51 51/135/51 89/136/51 90/137/51 80/138/51
f 89/136/52 46/63/52 45/62/52 88/132/52 87/131/52 90/137/52
f 35/47/53 40/139/53 44/140/53 48/70/53 36/48/53
f 50/69/54 54/141/54 58/142/54 32/44/54 31/43/54
f 33/86/55 60/85/55 61/90/55 37/89/55 34/49/55
f 57/80/56 56/79/56 70/99/56 65/143/56 59/144/56
f 66/95/57 72/145/57 73/106/57 63/92/57 62/91/57
f 69/100/58 68/146/58 82/123/58 77/112/58 71/111/58
f 78/113/59 84/122/59 85/147/59 75/148/59 74/114/59
f 81/149/60 80/138/60 90/137/60 87/131/60 83/150/60
f 88/151/61 45/152/61 43/58/61 42/57/61 86/126/61
f 89/136/62 51/135/62 49/71/62 47/64/62 46/63/62
f 52/153/63 79/154/63 67/96/63 55/78/63 53/77/63
f 39/55/64 38/155/64 64/156/64 76/127/64 41/56/64
